<svg xmlns="http://www.w3.org/2000/svg" viewBox="0 0 127.47 127.47"><defs><style>.cls-1{fill:#ffcc23;}.cls-2{fill:#026490;}.cls-3{fill:#fff;}</style></defs><title>Asset 1</title><g id="Layer_2" data-name="Layer 2"><g id="OBJECTS"><path class="cls-1" d="M113.85,86.67a26.16,26.16,0,0,0-25.06,18.66h0a26.14,26.14,0,0,0-49.92-.57c0,.19-.09.38-.14.57l0-.07a.25.25,0,0,0,0,.07c-.06-.19-.1-.38-.15-.57A26.15,26.15,0,0,0,4.87,88.19a63.74,63.74,0,0,0,117.73,0A25.86,25.86,0,0,0,113.85,86.67Z"/><path class="cls-2" d="M13.67,71.7a26.15,26.15,0,0,1,25,18.58,26.15,26.15,0,0,1,50.09.09,26.15,26.15,0,0,1,37.67-15.43A63.73,63.73,0,1,0,1,75,26,26,0,0,1,13.67,71.7Z"/><path class="cls-3" d="M98.94,19.3a1.68,1.68,0,0,1,.75,3.08l-53.3,35A40.82,40.82,0,0,1,20,63.74a1.57,1.57,0,0,1-.71-2.87L76.37,23.43C83.64,18.66,93.36,18.74,98.94,19.3Z"/><path class="cls-3" d="M66.77,31.71,37.41,29.08a7.21,7.21,0,0,0-4.58,1.15L30.5,31.76,51,42.06Z"/><path class="cls-3" d="M70,39.37l6.26,9.54a7.17,7.17,0,0,1,.8,6.22l-.3.88L57.21,44.81Z"/><polygon class="cls-3" points="36.06 51.86 25.22 47.1 21.46 49.57 27.59 58.9 36.06 51.86"/></g></g></svg>