<svg width="50" height="50" viewBox="0 0 50 50" fill="none" xmlns="http://www.w3.org/2000/svg">
<g clip-path="url(#clip0_14_3508)">
<path d="M44.6576 33.9962C42.4497 33.9964 40.3008 34.7087 38.53 36.0272C36.7591 37.3458 35.4608 39.2004 34.8278 41.3156V41.3156C34.2023 39.2193 32.9226 37.378 31.176 36.0608C29.4293 34.7437 27.3071 34.0197 25.1196 33.9947C22.9321 33.9697 20.7939 34.6451 19.0176 35.922C17.2413 37.1989 15.92 39.0105 15.2467 41.092C15.2467 41.1665 15.2114 41.2411 15.1918 41.3156V41.2881C15.1905 41.2973 15.1905 41.3065 15.1918 41.3156C15.1683 41.2411 15.1526 41.1665 15.133 41.092C14.7102 39.7843 14.0289 38.575 13.1296 37.5357C12.2303 36.4964 11.1313 35.6485 9.89795 35.0422C8.66456 34.436 7.32192 34.0837 5.94976 34.0065C4.5776 33.9292 3.2039 34.1285 1.91026 34.5925C3.80537 39.1555 7.00998 43.0546 11.1195 45.7977C15.229 48.5408 20.0591 50.0047 25 50.0047C29.9409 50.0047 34.771 48.5408 38.8805 45.7977C42.99 43.0546 46.1946 39.1555 48.0897 34.5925C46.9886 34.1973 45.8274 33.9956 44.6576 33.9962V33.9962Z" fill="#455A64"/>
<path d="M5.36205 28.1243C7.56203 28.1268 9.70291 28.8366 11.4686 30.1489C13.2344 31.4612 14.5314 33.3065 15.1683 35.4123C15.8064 33.3011 17.1079 31.4519 18.8799 30.1389C20.6519 28.8258 22.7998 28.1188 25.0053 28.1228C27.2107 28.1267 29.3561 28.8414 31.1234 30.1609C32.8906 31.4803 34.1855 33.3342 34.816 35.4476C35.2539 33.9802 36.0148 32.6294 37.0428 31.4945C38.0709 30.3596 39.34 29.4692 40.7571 28.8888C42.1741 28.3083 43.7032 28.0525 45.232 28.1402C46.7608 28.2278 48.2506 28.6566 49.5921 29.3952C50.2408 25.794 50.091 22.0943 49.1534 18.5574C48.2157 15.0205 46.513 11.7325 44.1655 8.92566C41.818 6.11883 38.8829 3.86158 35.5675 2.31329C32.2521 0.765006 28.6372 -0.0365623 24.9781 -0.034812C21.319 -0.0330616 17.7048 0.771964 14.3909 2.32342C11.077 3.87488 8.14405 6.13494 5.79922 8.94402C3.45439 11.7531 1.75484 15.0427 0.820563 18.5805C-0.113712 22.1184 -0.259925 25.8182 0.392248 29.4187C1.91131 28.5703 3.62215 28.1247 5.36205 28.1243V28.1243Z" fill="#FF725E"/>
<path d="M38.8091 7.57041C38.945 7.58391 39.0732 7.63924 39.1762 7.72878C39.2793 7.81832 39.3519 7.93763 39.3842 8.07025C39.4165 8.20286 39.4068 8.34223 39.3565 8.46911C39.3062 8.59599 39.2177 8.70411 39.1033 8.77854L18.1964 22.5073C15.1316 24.4954 11.479 25.3756 7.84498 25.002C7.71867 24.9892 7.5994 24.9376 7.5035 24.8544C7.40761 24.7712 7.33977 24.6604 7.30928 24.5372C7.27879 24.4139 7.28714 24.2843 7.33318 24.1659C7.37922 24.0476 7.46071 23.9464 7.56648 23.8762L29.9561 9.1904C32.8077 7.31937 36.6204 7.35075 38.8091 7.57041Z" fill="white"/>
<path d="M26.1905 12.4382L14.674 11.4066C14.0416 11.351 13.4088 11.5099 12.8775 11.8577L11.9636 12.4578L20.0047 16.498L26.1905 12.4382Z" fill="white"/>
<path d="M27.4574 15.4428L29.9129 19.1849C30.1466 19.5412 30.2963 19.946 30.3507 20.3687C30.4051 20.7913 30.3627 21.2208 30.2267 21.6247L30.109 21.9699L22.4406 17.5767L27.4574 15.4428Z" fill="white"/>
<path d="M14.1445 20.342L9.89252 18.4749L8.41766 19.4438L10.8222 23.1035L14.1445 20.342Z" fill="white"/>
</g>
<defs>
<clipPath id="clip0_14_3508">
<rect width="50" height="50" fill="white"/>
</clipPath>
</defs>
</svg>
